HIERARCHY
ROOT root
{
	OFFSET 0.000000 0.000000 0.000000
	CHANNELS 6 Xposition Yposition Zposition Zrotation Yrotation Xrotation
	JOINT lhip
	{
		OFFSET 0.058581 -0.082280 -0.017664
		CHANNELS 3 Zrotation Yrotation Xrotation
		JOINT lknee
		{
			OFFSET 0.043451 -0.386469 0.008037
			CHANNELS 3 Zrotation Yrotation Xrotation
			JOINT lankle
			{
				OFFSET -0.014790 -0.426874 -0.037428
				CHANNELS 3 Zrotation Yrotation Xrotation
				JOINT ltoe
				{
					OFFSET 0.041054 -0.060286 0.122042
					CHANNELS 3 Zrotation Yrotation Xrotation
					End Site
					{
						OFFSET 0.000000 0.000000 0.000000
					}
				}
			}
		}
	}
	JOINT rhip
	{
		OFFSET -0.060310 -0.090513 -0.013543
		CHANNELS 3 Zrotation Yrotation Xrotation
		JOINT rknee
		{
			OFFSET -0.043257 -0.383688 -0.004843
			CHANNELS 3 Zrotation Yrotation Xrotation
			JOINT rankle
			{
				OFFSET 0.019056 -0.420046 -0.034562
				CHANNELS 3 Zrotation Yrotation Xrotation
				JOINT rtoe
				{
					OFFSET -0.034840 -0.062106 0.130323
					CHANNELS 3 Zrotation Yrotation Xrotation
					End Site
					{
						OFFSET 0.000000 0.000000 0.000000
					}
				}
			}
		}
	}
	JOINT lowerback
	{
		OFFSET 0.004439 0.124404 -0.038385
		CHANNELS 3 Zrotation Yrotation Xrotation
		JOINT upperback
		{
			OFFSET 0.004488 0.137956 0.026820
			CHANNELS 3 Zrotation Yrotation Xrotation
			JOINT chest
			{
				OFFSET -0.002265 0.056032 0.002855
				CHANNELS 3 Zrotation Yrotation Xrotation
				JOINT lowerneck
				{
					OFFSET -0.013390 0.211636 -0.033468
					CHANNELS 3 Zrotation Yrotation Xrotation
					JOINT upperneck
					{
						OFFSET 0.010113 0.088937 0.050410
						CHANNELS 3 Zrotation Yrotation Xrotation
						End Site
						{
							OFFSET 0.000000 0.000000 0.000000
						}
					}
				}
				JOINT lclavicle
				{
					OFFSET 0.071702 0.114000 -0.018898
					CHANNELS 3 Zrotation Yrotation Xrotation
					JOINT lshoulder
					{
						OFFSET 0.122921 0.045205 -0.019046
						CHANNELS 3 Zrotation Yrotation Xrotation
						JOINT lelbow
						{
							OFFSET 0.255332 -0.015649 -0.022946
							CHANNELS 3 Zrotation Yrotation Xrotation
							JOINT lwrist
							{
								OFFSET 0.265709 0.012698 -0.007375
								CHANNELS 3 Zrotation Yrotation Xrotation
								End Site
								{
									OFFSET 0.000000 0.000000 0.000000
								}
							}
						}
					}
				}
				JOINT rclavicle
				{
					OFFSET -0.082954 0.112472 -0.023707
					CHANNELS 3 Zrotation Yrotation Xrotation
					JOINT rshoulder
					{
						OFFSET -0.113228 0.046853 -0.008472
						CHANNELS 3 Zrotation Yrotation Xrotation
						JOINT relbow
						{
							OFFSET -0.260127 -0.014369 -0.031269
							CHANNELS 3 Zrotation Yrotation Xrotation
							JOINT rwrist
							{
								OFFSET -0.269108 0.006794 -0.006027
								CHANNELS 3 Zrotation Yrotation Xrotation
								End Site
								{
									OFFSET 0.000000 0.000000 0.000000
								}
							}
						}
					}
				}
			}
		}
	}
}
MOTION
Frames: 13
Frame Time: 0.033333
-1.621265 1.623414 1.007949 59.994439 -0.510225 86.396300 4.697031 2.284202 -11.313486 -6.109706 12.705025 21.659021 4.443354 15.942754 -14.548642 0.000000 -0.000000 0.000000 0.280909 -0.675120 -14.926347 -1.194218 -3.261523 35.539335 -0.331684 -13.123241 -20.791027 0.000000 -0.000000 0.000000 -2.224337 -2.323206 19.412598 -0.477737 -5.942173 5.648316 -1.107071 -3.872294 4.415504 -0.837716 -6.397778 -2.674477 10.030734 -5.615527 1.263292 -21.422580 -8.812680 7.111407 -50.839266 -13.788035 14.956592 3.703972 -68.759866 -12.980341 9.003779 -11.284205 -52.223270 16.517171 4.541129 3.955112 48.500684 -5.006855 20.309536 8.406692 63.498301 27.284555 13.149347 5.794423 1.644018 
-1.620516 1.623752 1.007744 59.850613 -0.447918 86.235612 4.705990 2.370745 -11.134771 -5.964177 12.878710 21.733176 4.662229 15.785788 -14.551850 0.000000 -0.000000 0.000000 0.308635 -0.743518 -14.810385 -1.439347 -3.500903 35.671979 -0.643446 -12.656503 -20.805590 0.000000 -0.000000 0.000000 -2.195726 -2.228014 19.448369 -0.408288 -6.181464 5.685784 -1.142894 -3.882922 4.275259 -1.063109 -6.479705 -2.170900 9.909611 -5.445101 1.517244 -21.439688 -8.911842 7.037707 -50.785544 -13.412250 15.029198 4.085722 -68.829719 -13.207303 9.252731 -11.044593 -52.516873 16.334984 4.909455 4.323402 48.611914 -4.980509 20.183926 8.201661 63.497338 27.471753 13.127318 5.815609 1.093832 
-1.619832 1.624186 1.007627 59.789874 -0.404314 86.185574 4.693726 2.370140 -11.114439 -5.930783 12.874094 21.856452 4.678533 15.845430 -14.651226 0.000000 -0.000000 0.000000 0.300511 -0.770746 -14.768079 -1.431742 -3.478011 35.730267 -0.618584 -12.614359 -20.807070 0.000000 -0.000000 0.000000 -2.210746 -2.233578 19.400712 -0.402660 -6.258244 5.795298 -1.175246 -3.845739 4.351182 -1.048827 -6.397462 -2.165838 9.962356 -5.404044 1.319431 -21.296528 -8.902968 6.917076 -50.829146 -13.414666 15.085900 4.189723 -68.907501 -13.319904 9.382049 -10.846149 -52.530791 16.307714 4.913337 4.205864 48.597856 -4.967942 20.221472 8.294149 63.514519 27.522411 13.243803 5.799617 1.037756 
-1.619136 1.624712 1.007339 59.720870 -0.364705 86.138159 4.684928 2.392464 -11.124843 -5.908802 12.878826 22.041601 4.731883 15.914109 -14.787293 0.000000 -0.000000 0.000000 0.313584 -0.761151 -14.773689 -1.455116 -3.429564 35.860209 -0.612941 -12.642412 -20.828666 0.000000 -0.000000 0.000000 -2.257800 -2.194557 19.495995 -0.410601 -6.225182 5.723744 -1.072791 -3.898507 4.346109 -1.119115 -6.507202 -2.001447 10.094872 -5.150955 0.838600 -21.279829 -8.961857 6.920575 -50.817612 -13.314859 15.085452 4.255523 -69.042214 -13.421911 9.590060 -10.590027 -52.502889 16.172469 4.948408 4.215918 48.611241 -5.107534 20.197792 8.538232 63.564671 27.717714 13.223036 5.786798 0.998336 
-1.618784 1.625018 1.007144 59.702775 -0.346818 86.105077 4.679711 2.406120 -11.136105 -5.913421 12.874331 22.159438 4.790653 15.957293 -14.867875 0.000000 -0.000000 0.000000 0.320957 -0.766991 -14.784851 -1.465105 -3.392015 35.959226 -0.639219 -12.674715 -20.862655 0.000000 -0.000000 0.000000 -2.273531 -2.169215 19.582371 -0.428782 -6.201389 5.639743 -1.003846 -3.958150 4.293491 -1.211669 -6.600433 -1.834712 10.174230 -4.957068 0.654072 -21.336730 -9.040882 7.007147 -50.721587 -13.224772 15.020070 4.373850 -69.152022 -13.572410 9.759452 -10.389078 -52.431619 16.093686 5.046639 4.348415 48.628893 -5.221023 20.147928 8.651171 63.584698 27.807078 13.092156 5.780218 1.042861 
-1.618352 1.625433 1.006892 59.711282 -0.329881 86.060279 4.671755 2.420718 -11.154576 -5.931173 12.856751 22.313797 4.819935 16.002070 -14.970574 0.000000 -0.000000 0.000000 0.313391 -0.796291 -14.795784 -1.465287 -3.341880 36.090796 -0.621700 -12.705712 -20.923138 0.000000 -0.000000 0.000000 -2.287070 -2.136353 19.714234 -0.456142 -6.176743 5.536972 -0.968472 -3.999182 4.278254 -1.244461 -6.557449 -1.847383 10.249345 -4.860185 0.670615 -21.367871 -9.145259 7.080032 -50.563392 -13.216056 14.960846 4.515659 -69.236220 -13.773364 9.988435 -10.175073 -52.342295 16.102490 5.070720 4.376687 48.565724 -5.359392 20.150639 8.923056 63.579776 28.061067 12.957743 5.783485 1.138454 
-1.618022 1.625839 1.006672 59.728149 -0.335039 85.983503 4.652567 2.456799 -11.133643 -5.957921 12.848179 22.454539 4.849580 16.010815 -15.071795 0.000000 -0.000000 0.000000 0.273376 -0.822477 -14.772140 -1.455980 -3.307326 36.217171 -0.573628 -12.725387 -20.970846 0.000000 -0.000000 0.000000 -2.318033 -2.127354 19.788512 -0.486231 -6.191393 5.571983 -1.010712 -3.943689 4.305732 -1.142564 -6.447913 -1.975807 10.325950 -4.894978 0.679320 -21.275050 -9.216669 7.057989 -50.478550 -13.323963 14.923900 4.492003 -69.211289 -13.852890 10.150173 -9.995617 -52.286229 16.125295 5.043996 4.285068 48.561987 -5.452248 20.191655 9.155044 63.575003 28.303752 12.966243 5.767835 1.150605 
-1.617751 1.626248 1.006381 59.785909 -0.338850 85.901537 4.618516 2.469021 -11.128634 -5.967240 12.809996 22.595408 4.907321 16.029919 -15.152326 0.000000 -0.000000 0.000000 0.223064 -0.877528 -14.750306 -1.450228 -3.313538 36.351420 -0.580630 -12.737435 -21.019574 0.000000 -0.000000 0.000000 -2.305140 -2.144994 19.797434 -0.510723 -6.264915 5.665359 -1.054889 -3.913563 4.293886 -1.169591 -6.466980 -1.890908 10.362054 -4.858255 0.556874 -21.183618 -9.316242 7.018509 -50.427696 -13.335966 14.875555 4.546473 -69.195661 -14.026795 10.315972 -9.771038 -52.277376 16.029094 5.136851 4.321440 48.659157 -5.495605 20.175486 9.249420 63.611201 28.398531 12.896922 5.745502 1.118455 
-1.617579 1.626639 1.006125 59.850637 -0.342002 85.830356 4.588556 2.472666 -11.143550 -5.970337 12.781026 22.737653 4.943383 16.044519 -15.228490 0.000000 -0.000000 0.000000 0.186377 -0.926787 -14.736884 -1.464137 -3.326800 36.474623 -0.586761 -12.756063 -21.075834 0.000000 -0.000000 0.000000 -2.292186 -2.157102 19.848916 -0.529688 -6.316237 5.697373 -1.075237 -3.913341 4.280811 -1.209653 -6.500858 -1.831391 10.384366 -4.807029 0.462338 -21.134843 -9.379506 7.011595 -50.360710 -13.342889 14.814515 4.636437 -69.235299 -14.188994 10.464593 -9.565816 -52.229645 15.962738 5.204867 4.347379 48.687581 -5.528579 20.149989 9.384642 63.669671 28.501307 12.843670 5.739633 1.095937 
-1.617473 1.627064 1.005866 59.940642 -0.344607 85.770621 4.558096 2.451781 -11.192643 -5.976808 12.754583 22.904291 4.968969 16.076865 -15.310597 0.000000 -0.000000 0.000000 0.158335 -0.963385 -14.737471 -1.480769 -3.332786 36.598344 -0.584581 -12.815346 -21.135687 0.000000 -0.000000 0.000000 -2.268010 -2.184869 19.902161 -0.550212 -6.355880 5.670958 -1.110330 -3.922715 4.314854 -1.318598 -6.455088 -1.839070 10.340289 -4.778060 0.538741 -21.082382 -9.409698 6.974650 -50.248984 -13.364699 14.781922 4.652107 -69.288158 -14.321365 10.680027 -9.353855 -52.179819 15.911856 5.257252 4.329873 48.678266 -5.530283 20.176229 9.454363 63.688358 28.490692 12.787811 5.740802 1.080951 
-1.617440 1.627375 1.005732 60.023285 -0.338456 85.732515 4.527709 2.426673 -11.225859 -5.975526 12.698316 23.008652 5.001367 16.125933 -15.370099 0.000000 -0.000000 0.000000 0.140777 -1.002906 -14.719945 -1.484871 -3.343446 36.651289 -0.573635 -12.840830 -21.168491 0.000000 -0.000000 0.000000 -2.240952 -2.188856 19.942039 -0.563360 -6.377865 5.647476 -1.124310 -3.899100 4.334404 -1.348238 -6.435934 -1.839297 10.384558 -4.751081 0.458421 -21.018778 -9.472495 6.936925 -50.206603 -13.392413 14.793852 4.602856 -69.316574 -14.417077 10.865778 -9.158693 -52.190117 15.872211 5.266560 4.288926 48.671030 -5.564319 20.162479 9.485408 63.714261 28.484425 12.773150 5.713630 1.125749 
-1.617525 1.627672 1.005640 60.095087 -0.323883 85.692557 4.516360 2.418401 -11.269692 -5.975861 12.647384 23.133263 5.031982 16.149671 -15.429035 0.000000 -0.000000 0.000000 0.130770 -1.037971 -14.700932 -1.478603 -3.366752 36.694663 -0.568952 -12.855192 -21.201628 0.000000 -0.000000 0.000000 -2.218047 -2.165865 19.960965 -0.570555 -6.379179 5.679923 -1.122549 -3.865083 4.343012 -1.303853 -6.477172 -1.835966 10.488675 -4.737754 0.261587 -20.944333 -9.574055 6.909840 -50.191612 -13.439431 14.804387 4.633402 -69.362513 -14.465821 11.012756 -8.950549 -52.130216 15.806613 5.284457 4.255118 48.688312 -5.623654 20.101131 9.522436 63.785013 28.527868 12.804792 5.676787 1.087212 
-1.617713 1.627992 1.005552 60.204148 -0.308110 85.679240 4.505401 2.408183 -11.350938 -5.975555 12.593874 23.247876 5.059181 16.153422 -15.469448 0.000000 -0.000000 0.000000 0.117588 -1.098566 -14.716173 -1.462214 -3.400117 36.734199 -0.570920 -12.875187 -21.238821 0.000000 -0.000000 0.000000 -2.200378 -2.137541 20.013745 -0.566699 -6.379211 5.638544 -1.088602 -3.888372 4.350085 -1.292649 -6.521060 -1.819272 10.562362 -4.702861 0.178941 -20.925542 -9.648288 6.916335 -50.165370 -13.453804 14.810111 4.719201 -69.462074 -14.530994 11.135356 -8.761915 -52.040533 15.738419 5.310036 4.240129 48.650914 -5.671841 20.057649 9.643752 63.849614 28.619056 12.862734 5.647132 1.003404 
